Patient4_TMGait_0pt6_02_left_03_EMG.mot
version=1
nRows=20
nColumns=33
inDegrees=no
endheader
time	1LAddLong	2LGlutMax	3LGlutMed	4LIliopsoas	5LSemiMemb	6LBicFemLong	7LRecFem	8LVastMed	9LVastLat	10LGasMed	11LTibAnt	12lTibPost	13LPeroneusLong	14LSol	15LExtDigLong	16LFlexDigLong	17RAddLong	18RGlutMax	19RGlutMed	20RIliopsoas	21RSemiMemb	22RBicFemLong	23RRecFem	24RVastMed	25RVastLat	26RGasMed	27RTibAnt	28RTibPost	29RPeroneusLong	30RSol	31RExtDigLong	32RFlexDigLong
3.53	0.005341	-0.040588	-0.015717	-0.000305	0.019836	-0.095062	-0.013428	0.015564	0.19455	-0.028534	0.021515	-0.08255	0.018921	-0.016479	0.43778	-0.009155	-0.01236	-0.40634	-0.2153	-0.19684	0.14832	0.031586	0.30655	-0.02533	-0.17883	0.000305	0.29083	-0.004578	0.61951	-0.17212	-0.002899	-0.002136
3.531	0.006104	-0.028534	-0.003204	0.010986	0.021973	-0.049438	-0.025024	0.020752	0.2066	-0.036316	0.14816	-0.05722	-0.054626	0.065002	0.34332	-0.002289	-0.000763	-0.36926	-0.13702	-0.068207	0.20508	-0.070343	0.24887	-0.042572	-0.13794	-0.00351	0.79483	-0.005341	-1.0814	-0.16785	-0.005646	-0.00824
3.532	0.010376	-0.067902	-0.027161	0.024109	0.017853	-0.025024	-0.020294	0.019379	0.21637	0.000305	0.10727	-0.044556	-0.004272	-0.001526	-0.08728	0.004272	-0.010681	-0.36652	-0.3064	-0.029449	0.13138	-0.1091	-0.1471	0.2301	0.14435	-0.011444	0.79376	-0.011139	1.3173	-0.3093	0.001221	-0.007935
3.533	0.007935	-0.10819	-0.032959	0.023499	0.011139	-0.005035	-0.008698	0.026245	0.22705	0.031738	-0.004883	-0.031128	0.002747	-0.080566	-0.14389	0.002594	-0.030975	-0.28381	-0.64438	0.15961	0.05188	-0.095215	-0.40985	0.38437	0.18616	0.010376	-0.25146	-0.00946	2.3821	-0.6218	0.001221	-0.000305
3.534	0.015564	-0.14755	-0.010681	0.001984	-0.000763	0.014648	-0.003662	0.021362	0.22507	0.060425	-0.045929	-0.012512	0.027924	-0.058289	-0.47302	-0.017395	-0.02655	-0.25894	-0.17288	0.20905	0.014801	-0.12283	-0.33066	0.047455	0.13825	0.021973	-0.75592	-0.003357	-1.7694	-0.35873	-0.006866	0.008545
3.535	0.018921	-0.14282	0.004883	-0.01358	-0.027924	-0.003662	-0.014954	0.023193	0.21362	0.048828	0.061646	0	0.047455	-0.004425	-0.32333	-0.028229	-0.016785	-0.20599	0.66513	0.13809	-0.004272	-0.069427	-0.3183	-0.026245	0.12787	-0.002441	-0.65948	-0.010376	-1.4706	0.17654	-0.002594	-0.001373
3.536	0.009003	-0.19241	-0.004425	0.005341	-0.017548	-0.020294	-0.02182	0.020142	0.2211	0.026093	0.051117	0.010681	0.12466	0.000458	-0.12924	-0.003662	0.013123	-0.20386	1.0835	0.075531	-0.032654	-0.010223	-0.21469	-0.20538	0.08316	-0.024567	-0.43701	-0.010681	-0.32333	0.48279	-0.005188	0.006561
3.537	0.013275	-0.215	-0.065002	0.014343	-0.00061	-0.002441	-0.010834	0.024414	0.22308	0.014496	-0.11688	0.013428	0.1738	-0.051117	0.002747	0.004883	0.021973	-0.16037	0.77499	0.037384	-0.048218	0.018158	0.13351	-0.298	0.069122	-0.023499	-0.25803	-0.010834	0.15213	0.31342	-0.002899	-0.003815
3.538	0.013275	-0.16205	-0.050964	0.00061	-0.002136	-0.006104	-0.00412	0.020905	0.22125	0.018768	-0.28686	0.011292	0.16251	-0.10452	0.1712	-0.007172	0.010071	-0.13046	0.336	0.017548	-0.015564	0.069122	0.21713	-0.16617	-0.018311	-0.003662	-0.48035	0.00412	1.2134	0.2449	-0.003662	-0.002441
3.539	0.007019	-0.18524	-0.053253	0.006561	-0.002594	-0.029755	-0.00946	0.021515	0.21423	0.053711	-0.049744	0.02533	0.11169	-0.12528	0.12955	-0.017242	0.006561	-0.18372	-0.67062	0.030518	-0.036926	0.077667	0.2713	-0.11139	-0.041809	-0.010834	-0.32181	-0.012665	0.83084	0.24048	-0.002441	-0.00885
3.54	0.009003	-0.16098	-0.041046	0.00473	-0.003815	-0.01709	-0.023956	0.017853	0.22201	0.055847	-0.12558	0.028229	0.095978	-0.12375	0.005341	-0.003357	0.001984	-0.16815	-0.91782	0.051575	-0.040588	0.028839	0.159	-0.085907	0.010681	-0.022888	0.090332	-0.003357	-0.63843	0.20691	-0.00412	-0.00061
3.541	0.005798	-0.12741	-0.016937	-0.004425	-0.00885	-0.028229	-0.022888	0.017548	0.22995	0.021667	-0.08316	0.025635	0.089111	-0.068817	-0.065765	-0.014954	-0.029449	-0.1796	-0.54443	-0.004578	-0.018921	-0.005798	-0.32974	0.002899	0.15091	-0.026703	0.18875	-0.003052	-0.50507	0.29953	-0.001831	-0.014801
3.542	0.006866	-0.13336	-0.028992	0.005341	-0.006714	-0.026245	-0.019379	0.011139	0.22232	0.018616	-0.005951	0.028992	0.078125	-0.046844	-0.091248	-0.013123	-0.032196	-0.18524	-0.69214	0.007172	-0.012817	-0.002289	-0.62454	0.009003	0.11337	-0.020294	-0.036469	0.0354	0.41824	0.33981	-0.00412	-0.012665
3.543	0.00473	-0.10819	-0.041351	0.001678	-0.012512	-0.02655	-0.029907	0.018768	0.21881	0.011597	-0.094604	0.033875	0.089417	-0.023956	0.1329	-0.017853	-0.002136	-0.18127	-0.67673	0.014191	-0.037231	-0.016785	-0.26352	-0.06546	-0.08316	-0.020752	-0.11444	-0.009308	-0.15335	0.35553	-0.001831	-0.013733
3.544	-0.005188	-0.09613	-0.052795	-0.005951	-0.00412	-0.019531	-0.029144	0.023956	0.20889	0.024872	0.005951	0.032196	0.064087	-0.05188	0.3865	-0.016022	0.026703	-0.16068	0.095062	-0.0354	-0.043335	-0.064545	0.10376	-0.21652	-0.11704	-0.018921	-0.075378	-0.037537	-0.41458	0.19684	-0.000763	-0.016479
3.545	0.068817	-0.075531	-0.04303	0.007629	-0.003052	-0.028534	-0.045319	0.020142	0.21118	0.009766	0.10956	0.038452	0.019226	-0.082245	0.38711	-0.011749	0.015564	-0.12039	0.43579	-0.10468	-0.021973	-0.06485	0.052338	-0.041504	-0.015564	-0.022125	0.11444	-0.027313	-1.1101	0.067749	-0.001221	-0.020142
3.546	-0.063019	-0.084229	-0.046234	0.01709	-0.007019	-0.035706	-0.032196	0.014801	0.2092	-0.072632	-0.029755	0.031281	0.037079	-0.054626	-0.18158	-0.00885	0.001373	-0.1062	0.29098	-0.11124	-0.0177	-0.058594	-0.002899	0.16098	0.070038	-0.009766	0.25345	-0.014496	-0.29266	-0.024872	0.008087	-0.005188
3.547	-0.034943	-0.052185	-0.02243	0.006714	-0.020447	-0.045013	-0.050507	0.014954	0.21759	-0.10819	-0.14587	0.031738	0.14313	0.044403	-0.14801	0.003967	-0.000916	-0.053406	0.43396	-0.11383	-0.028839	-0.063171	0.17288	0.19928	-0.006256	-0.005188	0.043945	-0.015411	0.41992	-0.007324	-0.003967	-0.005798
3.548	0.036163	-0.053558	-0.022888	0.013733	-0.018616	-0.063171	-0.016937	0.016785	0.20844	-0.072632	-0.1561	0.032654	0.17075	0.049133	0.40436	0.006409	0.023956	-0.022125	0.10269	-0.023346	-0.030975	-0.06012	0.3566	0.014038	-0.14542	-0.013275	-0.04837	-0.012512	0.46951	0.008698	-0.001831	-0.008087
3.549	0.004883	-0.072937	-0.027313	0.005035	-0.000916	-0.078583	-0.029449	0.012817	0.20767	0.007019	-0.055847	0.026398	0.053558	0.001984	-0.007629	0.006866	0.031281	0.025787	-0.080414	-0.032196	-0.00946	-0.057831	0.31632	-0.16342	-0.067291	-0.01236	0.2182	-0.013428	-0.27435	-0.025482	-0.004425	-0.004425
